<mxfile host="app.diagrams.net" modified="2024-06-06T03:01:46.367Z" agent="Mozilla/5.0 (Macintosh; Intel Mac OS X 10_15_7) AppleWebKit/537.36 (KHTML, like Gecko) Chrome/123.0.0.0 Safari/537.36" etag="INwYWgc6fEfsNvD4smQE" version="24.4.13" type="github">
  <diagram name="第 1 页" id="IrYBh-we4-hO0y2d7JYK">
    <mxGraphModel dx="2261" dy="1930" grid="1" gridSize="10" guides="1" tooltips="1" connect="1" arrows="1" fold="1" page="1" pageScale="1" pageWidth="827" pageHeight="1169" math="0" shadow="0">
      <root>
        <mxCell id="0" />
        <mxCell id="1" parent="0" />
        <mxCell id="txEXzCPCH6nZ4rqp-_Vv-1" value="scrum" style="ellipse;whiteSpace=wrap;html=1;" vertex="1" parent="1">
          <mxGeometry x="180" y="630" width="120" height="80" as="geometry" />
        </mxCell>
        <mxCell id="txEXzCPCH6nZ4rqp-_Vv-3" style="edgeStyle=orthogonalEdgeStyle;rounded=0;orthogonalLoop=1;jettySize=auto;html=1;exitX=1;exitY=0.5;exitDx=0;exitDy=0;entryX=0;entryY=0.5;entryDx=0;entryDy=0;" edge="1" parent="1" source="txEXzCPCH6nZ4rqp-_Vv-2" target="txEXzCPCH6nZ4rqp-_Vv-1">
          <mxGeometry relative="1" as="geometry" />
        </mxCell>
        <mxCell id="txEXzCPCH6nZ4rqp-_Vv-2" value="敏捷式開發" style="rounded=0;whiteSpace=wrap;html=1;" vertex="1" parent="1">
          <mxGeometry y="640" width="120" height="60" as="geometry" />
        </mxCell>
        <mxCell id="txEXzCPCH6nZ4rqp-_Vv-6" style="edgeStyle=orthogonalEdgeStyle;rounded=0;orthogonalLoop=1;jettySize=auto;html=1;exitX=1;exitY=0.5;exitDx=0;exitDy=0;entryX=0;entryY=0.5;entryDx=0;entryDy=0;" edge="1" parent="1" source="txEXzCPCH6nZ4rqp-_Vv-4" target="txEXzCPCH6nZ4rqp-_Vv-5">
          <mxGeometry relative="1" as="geometry" />
        </mxCell>
        <mxCell id="txEXzCPCH6nZ4rqp-_Vv-31" style="edgeStyle=orthogonalEdgeStyle;rounded=0;orthogonalLoop=1;jettySize=auto;html=1;exitX=0.5;exitY=0;exitDx=0;exitDy=0;entryX=1;entryY=0.5;entryDx=0;entryDy=0;" edge="1" parent="1" source="txEXzCPCH6nZ4rqp-_Vv-4" target="txEXzCPCH6nZ4rqp-_Vv-29">
          <mxGeometry relative="1" as="geometry" />
        </mxCell>
        <mxCell id="txEXzCPCH6nZ4rqp-_Vv-32" style="edgeStyle=orthogonalEdgeStyle;rounded=0;orthogonalLoop=1;jettySize=auto;html=1;exitX=0;exitY=0.5;exitDx=0;exitDy=0;entryX=1;entryY=0.5;entryDx=0;entryDy=0;" edge="1" parent="1" source="txEXzCPCH6nZ4rqp-_Vv-4" target="txEXzCPCH6nZ4rqp-_Vv-30">
          <mxGeometry relative="1" as="geometry" />
        </mxCell>
        <mxCell id="txEXzCPCH6nZ4rqp-_Vv-4" value="瀑布式開發" style="rounded=0;whiteSpace=wrap;html=1;" vertex="1" parent="1">
          <mxGeometry x="-20" y="-80" width="120" height="60" as="geometry" />
        </mxCell>
        <mxCell id="txEXzCPCH6nZ4rqp-_Vv-17" style="edgeStyle=orthogonalEdgeStyle;rounded=0;orthogonalLoop=1;jettySize=auto;html=1;exitX=0.5;exitY=1;exitDx=0;exitDy=0;entryX=0.5;entryY=0;entryDx=0;entryDy=0;" edge="1" parent="1" source="txEXzCPCH6nZ4rqp-_Vv-5" target="txEXzCPCH6nZ4rqp-_Vv-8">
          <mxGeometry relative="1" as="geometry" />
        </mxCell>
        <mxCell id="txEXzCPCH6nZ4rqp-_Vv-21" style="edgeStyle=orthogonalEdgeStyle;rounded=0;orthogonalLoop=1;jettySize=auto;html=1;exitX=1;exitY=0.5;exitDx=0;exitDy=0;entryX=0;entryY=0.25;entryDx=0;entryDy=0;" edge="1" parent="1" source="txEXzCPCH6nZ4rqp-_Vv-5" target="txEXzCPCH6nZ4rqp-_Vv-11">
          <mxGeometry relative="1" as="geometry" />
        </mxCell>
        <mxCell id="txEXzCPCH6nZ4rqp-_Vv-5" value="專案經理" style="ellipse;whiteSpace=wrap;html=1;" vertex="1" parent="1">
          <mxGeometry x="210" y="-230" width="120" height="80" as="geometry" />
        </mxCell>
        <mxCell id="txEXzCPCH6nZ4rqp-_Vv-7" value="系統維運" style="ellipse;whiteSpace=wrap;html=1;" vertex="1" parent="1">
          <mxGeometry x="210" y="160" width="120" height="80" as="geometry" />
        </mxCell>
        <mxCell id="txEXzCPCH6nZ4rqp-_Vv-18" style="edgeStyle=orthogonalEdgeStyle;rounded=0;orthogonalLoop=1;jettySize=auto;html=1;exitX=0.5;exitY=1;exitDx=0;exitDy=0;entryX=0.5;entryY=0;entryDx=0;entryDy=0;" edge="1" parent="1" source="txEXzCPCH6nZ4rqp-_Vv-8" target="txEXzCPCH6nZ4rqp-_Vv-9">
          <mxGeometry relative="1" as="geometry" />
        </mxCell>
        <mxCell id="txEXzCPCH6nZ4rqp-_Vv-23" style="edgeStyle=orthogonalEdgeStyle;rounded=0;orthogonalLoop=1;jettySize=auto;html=1;exitX=1;exitY=1;exitDx=0;exitDy=0;entryX=0;entryY=0.25;entryDx=0;entryDy=0;" edge="1" parent="1" source="txEXzCPCH6nZ4rqp-_Vv-8" target="txEXzCPCH6nZ4rqp-_Vv-14">
          <mxGeometry relative="1" as="geometry" />
        </mxCell>
        <mxCell id="txEXzCPCH6nZ4rqp-_Vv-8" value="系統設計" style="ellipse;whiteSpace=wrap;html=1;" vertex="1" parent="1">
          <mxGeometry x="210" y="-130" width="120" height="80" as="geometry" />
        </mxCell>
        <mxCell id="txEXzCPCH6nZ4rqp-_Vv-19" style="edgeStyle=orthogonalEdgeStyle;rounded=0;orthogonalLoop=1;jettySize=auto;html=1;exitX=0.5;exitY=1;exitDx=0;exitDy=0;entryX=0.5;entryY=0;entryDx=0;entryDy=0;" edge="1" parent="1" source="txEXzCPCH6nZ4rqp-_Vv-9" target="txEXzCPCH6nZ4rqp-_Vv-10">
          <mxGeometry relative="1" as="geometry" />
        </mxCell>
        <mxCell id="txEXzCPCH6nZ4rqp-_Vv-25" style="edgeStyle=orthogonalEdgeStyle;rounded=0;orthogonalLoop=1;jettySize=auto;html=1;exitX=1;exitY=1;exitDx=0;exitDy=0;entryX=0;entryY=0.25;entryDx=0;entryDy=0;" edge="1" parent="1" source="txEXzCPCH6nZ4rqp-_Vv-9" target="txEXzCPCH6nZ4rqp-_Vv-15">
          <mxGeometry relative="1" as="geometry" />
        </mxCell>
        <mxCell id="txEXzCPCH6nZ4rqp-_Vv-9" value="系統開發" style="ellipse;whiteSpace=wrap;html=1;" vertex="1" parent="1">
          <mxGeometry x="210" y="-30" width="120" height="80" as="geometry" />
        </mxCell>
        <mxCell id="txEXzCPCH6nZ4rqp-_Vv-20" style="edgeStyle=orthogonalEdgeStyle;rounded=0;orthogonalLoop=1;jettySize=auto;html=1;exitX=0.5;exitY=1;exitDx=0;exitDy=0;entryX=0.5;entryY=0;entryDx=0;entryDy=0;" edge="1" parent="1" source="txEXzCPCH6nZ4rqp-_Vv-10" target="txEXzCPCH6nZ4rqp-_Vv-7">
          <mxGeometry relative="1" as="geometry" />
        </mxCell>
        <mxCell id="txEXzCPCH6nZ4rqp-_Vv-27" style="edgeStyle=orthogonalEdgeStyle;rounded=0;orthogonalLoop=1;jettySize=auto;html=1;exitX=1;exitY=1;exitDx=0;exitDy=0;entryX=0;entryY=0.25;entryDx=0;entryDy=0;" edge="1" parent="1" source="txEXzCPCH6nZ4rqp-_Vv-10" target="txEXzCPCH6nZ4rqp-_Vv-16">
          <mxGeometry relative="1" as="geometry" />
        </mxCell>
        <mxCell id="txEXzCPCH6nZ4rqp-_Vv-10" value="系統測試" style="ellipse;whiteSpace=wrap;html=1;" vertex="1" parent="1">
          <mxGeometry x="210" y="60" width="120" height="80" as="geometry" />
        </mxCell>
        <mxCell id="txEXzCPCH6nZ4rqp-_Vv-22" style="edgeStyle=orthogonalEdgeStyle;rounded=0;orthogonalLoop=1;jettySize=auto;html=1;exitX=0;exitY=0.75;exitDx=0;exitDy=0;entryX=1;entryY=0;entryDx=0;entryDy=0;" edge="1" parent="1" source="txEXzCPCH6nZ4rqp-_Vv-11" target="txEXzCPCH6nZ4rqp-_Vv-8">
          <mxGeometry relative="1" as="geometry" />
        </mxCell>
        <mxCell id="txEXzCPCH6nZ4rqp-_Vv-11" value="需求文件" style="rounded=1;whiteSpace=wrap;html=1;" vertex="1" parent="1">
          <mxGeometry x="400" y="-180" width="120" height="60" as="geometry" />
        </mxCell>
        <mxCell id="txEXzCPCH6nZ4rqp-_Vv-24" style="edgeStyle=orthogonalEdgeStyle;rounded=0;orthogonalLoop=1;jettySize=auto;html=1;exitX=0;exitY=0.75;exitDx=0;exitDy=0;entryX=1;entryY=0;entryDx=0;entryDy=0;" edge="1" parent="1" source="txEXzCPCH6nZ4rqp-_Vv-14" target="txEXzCPCH6nZ4rqp-_Vv-9">
          <mxGeometry relative="1" as="geometry" />
        </mxCell>
        <mxCell id="txEXzCPCH6nZ4rqp-_Vv-14" value="設計文件" style="rounded=1;whiteSpace=wrap;html=1;" vertex="1" parent="1">
          <mxGeometry x="400" y="-70" width="120" height="60" as="geometry" />
        </mxCell>
        <mxCell id="txEXzCPCH6nZ4rqp-_Vv-26" style="edgeStyle=orthogonalEdgeStyle;rounded=0;orthogonalLoop=1;jettySize=auto;html=1;exitX=0;exitY=0.75;exitDx=0;exitDy=0;entryX=1;entryY=0;entryDx=0;entryDy=0;" edge="1" parent="1" source="txEXzCPCH6nZ4rqp-_Vv-15" target="txEXzCPCH6nZ4rqp-_Vv-10">
          <mxGeometry relative="1" as="geometry" />
        </mxCell>
        <mxCell id="txEXzCPCH6nZ4rqp-_Vv-15" value="開發文件" style="rounded=1;whiteSpace=wrap;html=1;" vertex="1" parent="1">
          <mxGeometry x="400" y="40" width="120" height="60" as="geometry" />
        </mxCell>
        <mxCell id="txEXzCPCH6nZ4rqp-_Vv-28" style="edgeStyle=orthogonalEdgeStyle;rounded=0;orthogonalLoop=1;jettySize=auto;html=1;exitX=0;exitY=0.75;exitDx=0;exitDy=0;entryX=1;entryY=0;entryDx=0;entryDy=0;" edge="1" parent="1" source="txEXzCPCH6nZ4rqp-_Vv-16" target="txEXzCPCH6nZ4rqp-_Vv-7">
          <mxGeometry relative="1" as="geometry" />
        </mxCell>
        <mxCell id="txEXzCPCH6nZ4rqp-_Vv-16" value="測試文件" style="rounded=1;whiteSpace=wrap;html=1;" vertex="1" parent="1">
          <mxGeometry x="400" y="120" width="120" height="60" as="geometry" />
        </mxCell>
        <mxCell id="txEXzCPCH6nZ4rqp-_Vv-37" style="edgeStyle=orthogonalEdgeStyle;rounded=0;orthogonalLoop=1;jettySize=auto;html=1;exitX=0;exitY=0.5;exitDx=0;exitDy=0;entryX=1;entryY=0.5;entryDx=0;entryDy=0;" edge="1" parent="1" source="txEXzCPCH6nZ4rqp-_Vv-29" target="txEXzCPCH6nZ4rqp-_Vv-36">
          <mxGeometry relative="1" as="geometry" />
        </mxCell>
        <mxCell id="txEXzCPCH6nZ4rqp-_Vv-29" value="優點：&lt;div&gt;需求明確&lt;/div&gt;&lt;div&gt;責任分屬明確&lt;/div&gt;&lt;div&gt;時間規劃明確&lt;/div&gt;" style="rounded=1;whiteSpace=wrap;html=1;" vertex="1" parent="1">
          <mxGeometry x="-260" y="-190" width="120" height="100" as="geometry" />
        </mxCell>
        <mxCell id="txEXzCPCH6nZ4rqp-_Vv-35" style="edgeStyle=orthogonalEdgeStyle;rounded=0;orthogonalLoop=1;jettySize=auto;html=1;exitX=0;exitY=0.5;exitDx=0;exitDy=0;entryX=1;entryY=0.5;entryDx=0;entryDy=0;" edge="1" parent="1" source="txEXzCPCH6nZ4rqp-_Vv-30" target="txEXzCPCH6nZ4rqp-_Vv-34">
          <mxGeometry relative="1" as="geometry" />
        </mxCell>
        <mxCell id="txEXzCPCH6nZ4rqp-_Vv-30" value="缺點：&lt;div&gt;無法跟隨需求變化&lt;/div&gt;&lt;div&gt;無法回到前一步驟&lt;/div&gt;&lt;div&gt;&lt;br&gt;&lt;/div&gt;" style="rounded=1;whiteSpace=wrap;html=1;" vertex="1" parent="1">
          <mxGeometry x="-260" y="-50" width="120" height="100" as="geometry" />
        </mxCell>
        <mxCell id="txEXzCPCH6nZ4rqp-_Vv-34" value="缺點：&lt;div&gt;最後才能看到成果&lt;/div&gt;&lt;div&gt;前期規劃時間長&lt;/div&gt;" style="rounded=1;whiteSpace=wrap;html=1;fillColor=#f8cecc;strokeColor=#b85450;" vertex="1" parent="1">
          <mxGeometry x="-430" y="-50" width="120" height="100" as="geometry" />
        </mxCell>
        <mxCell id="txEXzCPCH6nZ4rqp-_Vv-36" value="優點：&lt;div&gt;不需同一個空間工作&lt;/div&gt;&lt;div&gt;可以全面分析&lt;/div&gt;" style="rounded=1;whiteSpace=wrap;html=1;fillColor=#f8cecc;strokeColor=#b85450;" vertex="1" parent="1">
          <mxGeometry x="-430" y="-190" width="120" height="100" as="geometry" />
        </mxCell>
      </root>
    </mxGraphModel>
  </diagram>
</mxfile>
